<?xml version="1.0" encoding="UTF-8" standalone="no"?><!DOCTYPE svg PUBLIC "-//W3C//DTD SVG 1.1//EN" "http://www.w3.org/Graphics/SVG/1.1/DTD/svg11.dtd"><svg width="72px" height="29px" version="1.1" xmlns="http://www.w3.org/2000/svg" xmlns:xlink="http://www.w3.org/1999/xlink" xml:space="preserve" xmlns:serif="http://www.serif.com/" style="fill-rule:evenodd;clip-rule:evenodd;stroke-linejoin:round;stroke-miterlimit:2;"><clipPath id="_clip1"><rect id="iconfinder_125_Canada_Leaf_Maple_4783153" x="0" y="0.054" width="25.952" height="28.692"/></clipPath><g clip-path="url(#_clip1)"><path id="_x31_25_x2C__Canada_x2C__Leaf_x2C__Maple" d="M20.081,11.786c-0.074,-0.073 -0.11,-0.177 -0.096,-0.281l0.379,-2.893l-3.691,3.936c-0.102,0.108 -0.264,0.136 -0.396,0.066c-0.132,-0.069 -0.202,-0.218 -0.171,-0.364l1.866,-8.636l-2.425,1.854c-0.082,0.063 -0.19,0.084 -0.29,0.056c-0.101,-0.028 -0.182,-0.102 -0.22,-0.199l-2.063,-5.249l-2.088,5.251c-0.038,0.096 -0.12,0.169 -0.22,0.197c-0.101,0.028 -0.208,0.006 -0.291,-0.057l-2.396,-1.849l1.838,8.633c0.032,0.146 -0.038,0.294 -0.17,0.364c-0.132,0.069 -0.294,0.041 -0.396,-0.067l-3.683,-3.927l0.399,2.882c0.015,0.104 -0.021,0.208 -0.095,0.282c-0.075,0.074 -0.179,0.108 -0.283,0.092l-5.591,-0.846l3.503,4.427c0.064,0.082 0.087,0.189 0.061,0.29c-0.026,0.101 -0.098,0.183 -0.195,0.223l-2.701,1.12l7.161,1.679c0.125,0.03 0.221,0.128 0.249,0.253c0.027,0.125 -0.02,0.255 -0.121,0.333c-0.382,0.298 -0.765,0.609 -1.136,0.91c-0.21,0.171 -0.424,0.345 -0.641,0.519c1.771,0.492 3.564,0.792 5.339,0.891c0.092,0.005 0.178,0.05 0.237,0.121c0.059,0.071 0.086,0.179 0.074,0.271l-0.863,6.678l3.892,0l-0.811,-6.647c-0.011,-0.092 0.016,-0.197 0.076,-0.267c0.059,-0.071 0.145,-0.117 0.237,-0.121c1.92,-0.094 3.844,-0.395 5.729,-0.89l-2.077,-1.454c-0.108,-0.075 -0.161,-0.207 -0.136,-0.335c0.025,-0.129 0.122,-0.231 0.25,-0.261l7.134,-1.679l-2.703,-1.121c-0.096,-0.04 -0.168,-0.123 -0.194,-0.224c-0.026,-0.101 -0.003,-0.208 0.062,-0.29l3.526,-4.425l-5.587,0.845c-0.103,0.016 -0.207,-0.018 -0.282,-0.091Z" style="fill:#fff;fill-rule:nonzero;"/></g><g><path d="M37.939,9.734c-0.7,1.403 -1.492,2.145 -2.759,2.145c-1.967,0 -3.38,-1.7 -3.38,-4.236c0,-2.05 1.136,-3.939 3.261,-3.939c1.254,0 2.218,0.526 2.614,2.091l0.462,-0.095c-0.079,-0.822 -0.172,-1.43 -0.304,-2.198c-0.356,-0.067 -1.346,-0.363 -2.455,-0.363c-3.182,0 -5.358,1.927 -5.358,4.774c0,2.185 1.503,4.544 5.041,4.544c0.951,0 2.178,-0.268 2.535,-0.363c0.237,-0.458 0.594,-1.51 0.779,-2.171l-0.436,-0.189Z" style="fill:#fff;fill-rule:nonzero;"/><path d="M44.883,11.663l-0.132,-0.404c-0.145,0.081 -0.33,0.135 -0.488,0.135c-0.225,0 -0.436,-0.189 -0.436,-0.823l0,-2.348c0,-0.756 -0.132,-1.349 -0.686,-1.767c-0.329,-0.282 -0.738,-0.39 -1.214,-0.39c-0.766,0.148 -1.703,0.646 -2.165,0.97c-0.277,0.229 -0.435,0.391 -0.435,0.607c0,0.35 0.409,0.661 0.712,0.661c0.25,0 0.422,-0.095 0.501,-0.418c0.119,-0.419 0.237,-0.743 0.396,-0.931c0.145,-0.162 0.304,-0.243 0.515,-0.243c0.582,0 0.952,0.512 0.952,1.443l0,0.311c-0.304,0.256 -1.295,0.62 -2.114,0.904c-0.725,0.256 -1.055,0.634 -1.055,1.322c0,0.85 0.66,1.725 1.728,1.725c0.331,0 0.965,-0.458 1.494,-0.835c0.052,0.189 0.145,0.391 0.329,0.566c0.172,0.148 0.449,0.269 0.752,0.269l1.346,-0.754Zm-2.48,-0.526c-0.225,0.203 -0.529,0.338 -0.78,0.338c-0.343,0 -0.872,-0.297 -0.872,-1.053c0,-0.486 0.264,-0.742 0.727,-0.958c0.277,-0.148 0.674,-0.351 0.925,-0.499l0,2.172Z" style="fill:#fff;fill-rule:nonzero;"/><path d="M52.118,12.255l0,-0.403c-0.739,-0.108 -0.819,-0.148 -0.819,-1.038l0,-2.577c0,-1.377 -0.685,-2.171 -1.754,-2.171c-0.383,0 -0.674,0.135 -1.083,0.404c-0.317,0.203 -0.608,0.432 -0.872,0.608l0,-1.052c-0.726,0.242 -1.517,0.445 -2.203,0.553l0,0.35c0.673,0.135 0.752,0.189 0.752,1.039l0,2.805c0,0.917 -0.066,0.958 -0.937,1.079l0,0.403l3.127,0l0,-0.403c-0.66,-0.094 -0.739,-0.148 -0.739,-1.038l0,-3.239c0.383,-0.31 0.779,-0.553 1.202,-0.553c0.647,0 1.07,0.445 1.07,1.403l0,2.28c0,0.985 -0.079,1.053 -0.74,1.147l0,0.403l2.996,0Z" style="fill:#fff;fill-rule:nonzero;"/><path d="M58.494,11.663l-0.132,-0.404c-0.145,0.081 -0.33,0.135 -0.488,0.135c-0.224,0 -0.436,-0.189 -0.436,-0.823l0,-2.348c0,-0.756 -0.132,-1.349 -0.685,-1.767c-0.33,-0.282 -0.739,-0.39 -1.215,-0.39c-0.766,0.148 -1.703,0.646 -2.165,0.97c-0.277,0.229 -0.435,0.391 -0.435,0.607c0,0.35 0.409,0.661 0.712,0.661c0.251,0 0.422,-0.095 0.501,-0.418c0.119,-0.419 0.238,-0.743 0.396,-0.931c0.146,-0.162 0.304,-0.243 0.516,-0.243c0.581,0 0.951,0.512 0.951,1.443l0,0.311c-0.304,0.256 -1.295,0.62 -2.113,0.904c-0.726,0.256 -1.055,0.634 -1.055,1.322c0,0.85 0.659,1.725 1.728,1.725c0.33,0 0.964,-0.458 1.493,-0.835c0.053,0.189 0.145,0.391 0.33,0.566c0.171,0.148 0.448,0.269 0.751,0.269l1.346,-0.754Zm-2.48,-0.526c-0.225,0.203 -0.528,0.338 -0.78,0.338c-0.343,0 -0.872,-0.297 -0.872,-1.053c0,-0.486 0.265,-0.742 0.727,-0.958c0.278,-0.148 0.674,-0.351 0.925,-0.499l0,2.172Z" style="fill:#fff;fill-rule:nonzero;"/><path d="M65.729,11.496l-0.343,-0.04c-0.555,-0.054 -0.634,-0.122 -0.634,-0.876l0,-8.021c-0.62,0.202 -1.622,0.391 -2.428,0.486l0,0.389c0.885,0.081 0.978,0.135 0.978,0.945l0,1.795c-0.317,-0.081 -0.568,-0.108 -0.701,-0.108c-2.007,0 -3.63,1.509 -3.63,3.385c0,1.983 1.53,2.966 2.666,2.966c0.159,0 0.423,-0.054 0.832,-0.31l0.833,-0.525l0,0.849c0.949,-0.312 2.123,-0.474 2.427,-0.528l0,-0.407Zm-2.427,-0.372c-0.317,0.216 -0.635,0.324 -0.991,0.324c-0.727,0 -1.704,-0.702 -1.704,-2.348c0,-2.051 1.096,-2.469 1.532,-2.469c0.462,0 0.898,0.216 1.163,0.701l0,3.792Z" style="fill:#fff;fill-rule:nonzero;"/><path d="M72,11.663l-0.132,-0.404c-0.145,0.081 -0.33,0.135 -0.488,0.135c-0.225,0 -0.436,-0.189 -0.436,-0.823l0,-2.348c0,-0.756 -0.132,-1.349 -0.686,-1.767c-0.33,-0.282 -0.738,-0.39 -1.214,-0.39c-0.767,0.148 -1.704,0.646 -2.165,0.97c-0.277,0.229 -0.435,0.391 -0.435,0.607c0,0.35 0.408,0.661 0.712,0.661c0.25,0 0.422,-0.095 0.501,-0.418c0.118,-0.419 0.237,-0.743 0.396,-0.931c0.145,-0.162 0.304,-0.243 0.515,-0.243c0.582,0 0.952,0.512 0.952,1.443l0,0.311c-0.304,0.256 -1.295,0.62 -2.114,0.904c-0.725,0.256 -1.055,0.634 -1.055,1.322c0,0.85 0.66,1.725 1.728,1.725c0.331,0 0.965,-0.458 1.493,-0.835c0.053,0.189 0.145,0.391 0.33,0.566c0.172,0.148 0.448,0.269 0.752,0.269l1.346,-0.754Zm-2.48,-0.526c-0.225,0.203 -0.529,0.338 -0.78,0.338c-0.344,0 -0.872,-0.297 -0.872,-1.053c0,-0.486 0.264,-0.742 0.727,-0.958c0.277,-0.148 0.674,-0.351 0.925,-0.499l0,2.172Z" style="fill:#fff;fill-rule:nonzero;"/><path d="M36.302,21.109c-0.251,0.674 -0.488,1.12 -0.739,1.403c-0.304,0.351 -0.792,0.432 -1.453,0.432c-0.475,0 -0.884,-0.014 -1.122,-0.135c-0.264,-0.135 -0.33,-0.378 -0.33,-1.066l0,-5.369c0,-1.187 0.132,-1.255 1.175,-1.336l0,-0.457l-3.893,0l0,0.457c1.07,0.081 1.188,0.162 1.188,1.336l0,5.329c0,1.173 -0.132,1.254 -1.306,1.362l0,0.43l6.427,0c0.119,-0.39 0.396,-1.739 0.489,-2.265l-0.436,-0.121Z" style="fill:#fff;fill-rule:nonzero;"/><path d="M42.388,21.891c-0.474,0.446 -0.989,0.648 -1.517,0.648c-0.964,0 -1.863,-0.756 -1.902,-2.389c1.44,-0.054 3.116,-0.188 3.353,-0.215c0.264,-0.054 0.343,-0.202 0.343,-0.471c0.014,-1.107 -0.923,-2.158 -2.111,-2.158l-0.013,0c-0.713,0 -1.467,0.376 -2.047,0.997c-0.567,0.594 -0.949,1.443 -0.949,2.427c0,1.58 1.002,2.927 2.732,2.927c0.502,0 1.505,-0.256 2.336,-1.442l-0.225,-0.324Zm-2.138,-4.047c0.608,0 0.978,0.688 0.978,1.39c0,0.216 -0.079,0.27 -0.304,0.27c-0.647,0.027 -1.255,0.041 -1.902,0.041c0.145,-1.121 0.66,-1.701 1.202,-1.701l0.026,0Z" style="fill:#fff;fill-rule:nonzero;"/><path d="M49.464,17.481c-0.501,0.068 -1.214,0.162 -1.913,0.189c-0.448,-0.243 -0.871,-0.364 -1.373,-0.364l-0.013,0c-1.136,0 -2.521,0.713 -2.521,2.278c0,0.878 0.514,1.539 1.253,1.821c-0.238,0.256 -0.673,0.62 -1.293,0.876c-0.013,0.148 0.04,0.445 0.172,0.661c0.184,0.31 0.475,0.58 1.015,0.755c-0.33,0.23 -0.752,0.513 -1.055,0.797c-0.238,0.202 -0.396,0.458 -0.396,0.769c0.013,0.769 0.805,1.671 2.455,1.671c1.783,0 3.511,-1.293 3.511,-2.778c0,-1.428 -1.2,-1.658 -2.019,-1.658c-0.449,0 -0.871,0.028 -1.334,0.028c-0.621,0 -0.858,-0.284 -0.858,-0.541c0,-0.162 0.145,-0.338 0.277,-0.446c0.198,0.027 0.436,0.068 0.674,0.068c1.268,0 2.494,-0.714 2.494,-2.158c0,-0.486 -0.145,-0.85 -0.369,-1.133l0.778,0.054c0.225,-0.134 0.489,-0.552 0.581,-0.768l-0.066,-0.121Zm-3.405,0.295c0.713,0 1.097,0.81 1.097,1.754c0,1.053 -0.397,1.593 -0.952,1.593c-0.687,0 -1.083,-0.769 -1.083,-1.781c0,-1.026 0.462,-1.566 0.925,-1.566l0.013,0Zm0.198,5.962c0.515,0 0.859,0.027 1.215,0.135c0.41,0.135 0.687,0.459 0.687,0.931c0,0.783 -0.634,1.39 -1.757,1.39c-1.043,0 -1.756,-0.621 -1.756,-1.309c0,-0.337 0.171,-0.607 0.435,-0.85c0.225,-0.23 0.516,-0.297 1.163,-0.297l0.013,0Z" style="fill:#fff;fill-rule:nonzero;"/><path d="M55.59,22.903l-0.132,-0.405c-0.145,0.081 -0.33,0.135 -0.488,0.135c-0.225,0 -0.436,-0.188 -0.436,-0.823l0,-2.347c0,-0.756 -0.132,-1.35 -0.686,-1.767c-0.33,-0.283 -0.738,-0.39 -1.214,-0.39c-0.767,0.148 -1.704,0.645 -2.165,0.969c-0.277,0.23 -0.435,0.392 -0.435,0.607c0,0.351 0.408,0.662 0.712,0.662c0.25,0 0.422,-0.095 0.501,-0.419c0.118,-0.418 0.237,-0.742 0.396,-0.931c0.145,-0.162 0.304,-0.243 0.515,-0.243c0.582,0 0.952,0.513 0.952,1.444l0,0.311c-0.304,0.256 -1.295,0.62 -2.114,0.904c-0.725,0.256 -1.055,0.634 -1.055,1.322c0,0.85 0.66,1.725 1.728,1.725c0.331,0 0.965,-0.458 1.493,-0.835c0.053,0.189 0.145,0.391 0.33,0.566c0.172,0.148 0.448,0.269 0.752,0.269l1.346,-0.754Zm-2.48,-0.526c-0.225,0.202 -0.529,0.337 -0.78,0.337c-0.344,0 -0.872,-0.296 -0.872,-1.052c0,-0.486 0.264,-0.742 0.727,-0.958c0.277,-0.148 0.674,-0.351 0.925,-0.499l0,2.172Z" style="fill:#fff;fill-rule:nonzero;"/><path d="M59.168,23.495l0,-0.403c-0.845,-0.094 -0.938,-0.162 -0.938,-1.079l0,-8.214c-0.633,0.202 -1.569,0.405 -2.321,0.486l0,0.377c0.792,0.081 0.871,0.108 0.871,0.985l0,6.366c0,0.89 -0.093,0.958 -0.924,1.079l0,0.403l3.312,0Z" style="fill:#fff;fill-rule:nonzero;"/></g></svg>